<svg xmlns="http://www.w3.org/2000/svg" xmlns:xlink="http://www.w3.org/1999/xlink" fill="currentColor" viewBox="0 0 416 95" class="footer-logo-mktg d-block" height="30"><style>*, ::before, ::after { box-sizing: border-box; }</style><clipPath id="a"><path d="m0 0h416v95h-416z"></path></clipPath><clipPath id="b"><path d="m117.185 9.49258h298.068v75.9408h-298.068z"></path></clipPath><g clip-path="url(#a)"><path d="m41.6394 69.3848c-12.6328-1.5313-21.5332-10.6231-21.5332-22.3946 0-4.7851 1.7227-9.9531 4.5938-13.3984-1.2442-3.1582-1.0528-9.8574.3828-12.6328 3.8281-.4785 8.9961 1.5312 12.0586 4.3066 3.6367-1.1484 7.4648-1.7226 12.1543-1.7226 4.6894 0 8.5175.5742 11.9628 1.6269 2.9668-2.6797 8.2305-4.6894 12.0586-4.2109 1.3399 2.584 1.5313 9.2832.2871 12.5371 3.0625 3.6367 4.6895 8.5176 4.6895 13.4941 0 11.7715-8.9004 20.6719-21.7246 22.2989 3.2539 2.1054 5.4551 6.6992 5.4551 11.9629v9.9531c0 2.8711 2.3925 4.498 5.2636 3.3496 17.3223-6.6035 30.9122-23.9258 30.9122-45.3633 0-27.084-22.0118-49.19139933-49.0958-49.19139957-27.0839-.00000024-48.904249 22.10739957-48.904249 49.19139957 0 21.2461 13.494149 38.8555 31.677749 45.459 2.584.957 5.0723-.7656 5.0723-3.3496v-7.6563c-1.3399.5743-3.0625.9571-4.5938.9571-6.3164 0-10.0488-3.4453-12.7285-9.8575-1.0527-2.5839-2.2012-4.1152-4.4024-4.4023-1.1484-.0957-1.5312-.5742-1.5312-1.1484 0-1.1485 1.9141-2.0098 3.8281-2.0098 2.7754 0 5.168 1.7227 7.6563 5.2637 1.914 2.7754 3.9238 4.0195 6.3164 4.0195s3.9238-.8613 6.125-3.0625c1.6269-1.627 2.8711-3.0625 4.0195-4.0195z"></path><g clip-path="url(#b)"><path d="m188.937 83.0045v-49.7218h13.978v49.7218zm41.079 0c-9.289 0-12.917-3.9813-12.917-12.3862v-25.6572h-8.847v-11.6784h8.847v-9.909l13.979-3.2735v13.1825h10.351v11.6784h-10.351v22.5606c0 2.7427 1.239 3.8044 3.981 3.8044h6.37v11.6784zm97.454.8847c-10.882 0-16.81-6.0161-16.81-16.9868v-33.6197h14.068v29.9039c0 6.1046 2.742 9.4666 7.962 9.4666 6.016 0 10.617-5.5738 10.617-13.1825v-26.188h14.067v49.7218h-14.067v-8.4049c-2.654 5.3968-9.024 9.2896-15.837 9.2896zm67.143 0c-6.781 0-12.974-3.8928-15.926-9.4666v8.5819h-13.978v-69.3628h14.067v28.7537c2.863-6.0162 9.322-10.2629 15.837-10.2629 13.568 0 20.735 9.3782 20.26 25.9226.475 16.3675-6.957 25.8341-20.26 25.8341zm-4.955-11.7669c7.287 0 11.268-5.3968 10.794-14.0672.474-8.7588-3.507-14.1557-10.794-14.1557-5.807 0-10.407 5.6623-10.882 13.4479v.7963c.475 8.051 5.075 13.9787 10.882 13.9787zm-100.924-58.4806v28.1344h-26.365v-28.1344h-15.04v69.3628h15.04v-27.7805h26.365v27.7805h15.041v-69.3628zm-138.106 70.6899c-20.526 0-33.443-14.0672-33.443-36.097s13.183-35.92 34.062-35.92c16.987 0 27.25 7.2547 30.523 19.464l-15.217 3.6274c-1.858-6.6355-7.166-10.2629-15.306-10.2629-12.121 0-18.668 7.9626-18.668 23.0915s6.37 23.2684 18.314 23.2684c10.971 0 17.518-6.7239 17.518-18.137v-2.6541l3.893 5.3968h-22.649v-12.7401h33.973v8.051c0 21.1451-12.297 32.912-33 32.912zm45.298-55.738c4.689 0 8.317-3.6274 8.317-8.3165 0-4.689-3.628-8.3164-8.317-8.3164s-8.316 3.6274-8.316 8.3164c0 4.6891 3.627 8.3165 8.316 8.3165z"></path></g></g></svg>