<svg aria-hidden="true" xmlns="http://www.w3.org/2000/svg" viewBox="0 0 16 16" fill="none" width="16" height="16" data-view-component="true" class="octicon"><style>rect { shape-rendering: crispedges; }
*, ::before, ::after { box-sizing: border-box; }</style>
  <g clip-path="url(#clip0_3150_11451)">
    <path d="M8.08803 4.3535C8.74395 4.3535 9.56615 3.91006 10.0558 3.31881C10.4992 2.78299 10.8226 2.03469 10.8226 1.28639C10.8226 1.18477 10.8133 1.08314 10.7948 1C10.065 1.02771 9.18738 1.48963 8.6608 2.10859C8.24508 2.57975 7.86631 3.31881 7.86631 4.07635C7.86631 4.18721 7.88479 4.29807 7.89402 4.33502C7.94021 4.34426 8.01412 4.3535 8.08803 4.3535ZM5.77846 15.5318C6.67457 15.5318 7.07182 14.9313 8.18965 14.9313C9.32596 14.9313 9.57539 15.5133 10.5731 15.5133C11.5524 15.5133 12.2083 14.608 12.8273 13.7211C13.5201 12.7049 13.8065 11.7072 13.825 11.661C13.7603 11.6425 11.885 10.8757 11.885 8.7232C11.885 6.85707 13.3631 6.01639 13.4462 5.95172C12.467 4.5475 10.9796 4.51055 10.5731 4.51055C9.47377 4.51055 8.57766 5.1757 8.01412 5.1757C7.4044 5.1757 6.60066 4.5475 5.64912 4.5475C3.83842 4.5475 2 6.0441 2 8.87101C2 10.6263 2.68363 12.4832 3.52432 13.6842C4.2449 14.7004 4.87311 15.5318 5.77846 15.5318Z" fill="currentColor"></path>
  </g>
  <defs>
    <clipPath id="clip0_3150_11451">
      <rect width="16" height="16"></rect>
    </clipPath>
  </defs>
</svg>