<svg width="95" height="38" viewBox="0 0 95 38" fill="none" xmlns="http://www.w3.org/2000/svg"><title>InfoSys</title><g clip-path="url(#clip0_99_61)"><path fill-rule="evenodd" clip-rule="evenodd" d="M37.3205 19.8971C37.4127 25.3532 40.7883 29.7165 44.8607 29.6434C48.9324 29.5703 52.1581 25.0882 52.0659 19.6321C51.973 14.1753 48.5974 9.81201 44.5249 9.88587C40.4533 9.95897 37.2276 14.4411 37.3205 19.8971ZM67.036 13.3004C67.1296 13.5083 66.9073 12.9897 66.9073 12.9897L67.036 13.3004ZM70.1445 34.6445L70.1703 34.5961C70.9675 33.0168 72.1273 30.5389 73.1576 28.1684L67.036 13.3004C66.9949 13.2098 66.8944 12.9813 66.6895 12.513C66.2197 11.4363 65.7826 10.4418 64.4607 9.9407C63.7525 9.70083 62.9986 9.57518 62.1221 9.57518C60.108 9.57518 57.5319 10.4722 57.5319 13.4542C57.4978 15.4194 58.6401 15.9763 61.5667 17.4032C61.9775 17.6035 62.4236 17.821 62.9064 18.062C66.1298 19.4707 69.1034 21.0249 69.1209 24.6244C69.1209 30.6257 63.243 31.6644 60.3821 31.6743C58.1114 31.6743 56.0081 31.1725 54.655 30.2952V26.4025C56.8732 28.4281 58.8706 29.4751 61.4246 29.4751C64.0388 29.4949 66.3628 28.2088 66.3628 25.7332C66.3628 23.6673 64.5421 22.4588 61.289 21.0752L60.9779 20.9399C58.378 19.8098 56.4403 18.9676 55.4088 17.2967C55.5398 18.0513 55.6084 18.8311 55.6084 19.6291C55.6084 26.3294 50.7775 31.7619 44.8181 31.7619C38.8587 31.7619 34.0278 26.3294 34.0278 19.6291C34.0278 15.5894 35.7838 12.0112 38.4833 9.80592H31.1814V27.1884L31.1822 27.2577V30.8298H27.939V27.3742C27.9413 27.3133 27.942 27.2516 27.942 27.1884V9.80592H25.0826V7.61817H27.9839C28.3586 3.20459 31.0763 0.708435 34.8388 0.708435C37.2786 0.708435 38.6181 0.964299 39.3917 1.32448V4.31636C39.3796 4.53948 39.3796 4.67578 39.3796 4.67578C39.3461 4.67198 39.2661 4.67045 39.2661 4.67045C38.0919 3.58076 36.9337 2.76978 34.2281 2.77282C32.0731 2.77282 30.6476 4.53415 31.1456 7.61817H43.2837C43.7855 7.53821 44.2972 7.49633 44.8181 7.49633C49.141 7.49633 52.8708 10.3549 54.5926 14.4837C54.5766 14.2545 54.569 14.0154 54.569 13.7656C54.569 9.45792 58.7137 7.62578 63.0192 7.63492C63.1836 7.63416 63.3451 7.63491 63.5035 7.63872C65.0188 7.61435 67.1777 8.11161 68.4958 8.46037L69.6941 11.4215C69.7372 11.5415 69.787 11.6667 69.8428 11.7987L71.0513 14.7754L74.7034 23.7365L75.1321 25.1758L75.6096 23.7365L80.228 12.2343C81.0801 9.06727 84.4527 7.69659 88.1779 7.70421C90.0298 7.69583 91.3975 7.92048 93.0377 8.50073V11.9792C91.0183 10.5027 89.5722 9.64448 87.2808 9.64448C85.2667 9.64448 82.846 10.5415 82.846 13.5235C82.811 15.5428 83.8925 16.0752 86.9758 17.593L86.976 17.5931C87.3145 17.7598 87.6772 17.9383 88.0652 18.132C91.2886 19.54 94.2622 21.0942 94.2797 24.6937C94.2797 30.695 88.4025 31.7344 85.5416 31.7436C82.9876 31.7436 80.6468 31.1093 79.3446 30.0196V26.0576L79.5541 26.2319C81.8774 28.4144 83.9303 29.5452 86.5834 29.5452C89.1983 29.565 91.5216 28.2781 91.5216 25.8025C91.5216 23.7366 89.7009 22.5281 86.4478 21.1445C83.3386 19.7905 81.2986 18.8935 80.4648 16.6509C79.1969 19.7616 73.2992 34.2108 71.911 37.2994H68.731L69.4864 35.8807C69.6498 35.6001 69.876 35.1746 70.1445 34.6445ZM70.1445 34.6445L70.1482 34.6372L69.4819 35.8884L69.4864 35.8807L70.1445 34.6445ZM71.0513 14.7754L69.6928 11.418L69.6941 11.4215L71.0513 14.7754ZM0.82777 4.45118L0.827026 4.40625V0.809755H4.41592V27.1884L4.41741 27.2706V30.8298H0.827026V27.2333L0.82777 27.1884V4.45118ZM11.1531 10.4677L11.1135 7.84205H7.96024L7.95945 10.8651V30.8328H11.2004V27.2889L11.1988 27.1922V14.0246C11.2948 11.9617 14.1838 9.92395 16.4348 9.92395C19.1426 9.92395 21.3548 11.7576 21.3548 14.2934L21.3556 26.5403V30.8298H24.5949V27.26V27.1884L24.5911 12.8024C24.4928 10.7684 22.0462 7.53745 18.2662 7.53745C14.3171 7.53745 12.6556 8.95001 11.3374 10.3717C11.2841 10.441 11.2277 10.5339 11.1859 10.6436L11.1509 10.6443L11.1531 10.4677Z" fill="black"></path></g><defs><clipPath id="clip0_99_61"><rect width="95" height="38" fill="white"></rect></clipPath></defs></svg>