<svg width="107" height="40" viewBox="0 0 107 40" fill="none" xmlns="http://www.w3.org/2000/svg"><style>rect { shape-rendering: crispedges; }
*, ::before, ::after { box-sizing: border-box; }</style><title>Ford</title><g clip-path="url(#clip0_43_208)"><path fill-rule="evenodd" clip-rule="evenodd" d="M0 19.9976C0 8.87299 23.7329 0 53.3333 0C82.743 0 106.667 8.9684 106.667 19.9976C106.667 31.0268 82.743 40 53.3333 40C23.9284 40 0 31.0555 0 19.9976ZM74.5899 24.4578C74.4754 24.4148 74.3561 24.329 74.3418 24.2336C74.3244 24.173 74.3313 24.108 74.3609 24.0523C74.7902 23.1793 75.0955 22.0678 74.1319 21.6051C73.2064 21.1614 71.7896 21.9819 70.5064 23.5562C69.4569 24.849 68.8844 26.1608 68.8654 27.4441C68.8606 27.8973 69.0323 28.4602 69.433 28.6701C70.3394 29.1423 71.4318 28.4363 72.2237 27.7828C72.7437 27.3534 73.1778 26.9098 73.5595 26.3373C73.6179 26.25 73.6741 26.1667 73.7285 26.0863C74.0598 25.5957 74.3221 25.2074 74.6089 24.6009C74.6567 24.5007 74.6376 24.4721 74.5899 24.4578ZM84.5076 14.0487C84.665 14.0487 84.7318 14.1393 84.665 14.2634V14.2586C84.5522 14.4515 83.8796 15.491 82.9535 16.9223L82.9534 16.9225L82.9528 16.9234C80.5117 20.6963 76.3104 27.1898 75.9542 28.0785C75.7968 28.4745 75.7777 28.7703 75.9399 28.9849C76.3502 29.5335 77.2565 29.2139 77.829 28.818C79.0432 27.9776 79.991 27.014 80.9119 26.0778L80.912 26.0777L80.9121 26.0776L80.9122 26.0775C81.272 25.7117 81.6277 25.3501 81.9936 25.0016C82.0651 24.9491 82.1939 24.9253 82.2798 25.0016C82.3534 25.0716 82.4406 25.1487 82.5309 25.2285L82.531 25.2286L82.5311 25.2287L82.5312 25.2288L82.5313 25.2289C82.6747 25.3557 82.8259 25.4893 82.9429 25.6122C83.0383 25.7124 83.0001 25.8078 82.9524 25.8651C81.6835 27.4154 80.281 28.88 78.9357 29.9152C76.8463 31.5323 74.7616 31.9474 73.7312 30.9122C73.3496 30.521 73.1397 29.9724 73.111 29.5049C73.0967 29.2521 72.9679 29.2378 72.8487 29.357C71.6131 30.5782 69.4712 31.9235 67.5249 30.9694C65.8934 30.1584 65.5165 28.2169 65.8218 26.5806C65.8314 26.5472 65.7932 26.3135 65.5928 26.4518C65.2589 26.6951 64.8105 26.9623 64.2571 27.1674C63.7488 27.4012 63.1947 27.5185 62.6352 27.5109C62.2319 27.515 61.8346 27.4131 61.483 27.2156C61.1314 27.018 60.8378 26.7316 60.6316 26.385C60.3454 25.9605 60.2357 25.3165 60.2023 24.849C60.2023 24.7965 60.1355 24.7011 60.0592 24.8251C58.991 26.4522 57.9813 28.0394 56.9436 29.6704C56.6882 30.0717 56.4312 30.4757 56.1713 30.8836C56.1045 30.979 56.0425 31.041 55.9041 31.0505H53.2995C53.1373 31.0505 53.0609 30.9265 53.1468 30.7738C53.323 30.4358 53.7919 29.7021 54.3998 28.7509L54.4 28.7506L54.4 28.7506L54.4001 28.7506C55.4051 27.1779 56.79 25.011 57.86 23.0553C58.3323 22.1918 58.2369 21.7482 57.9411 21.5574C57.5738 21.3188 56.8439 21.6766 56.2237 22.1489C54.7999 23.2258 53.5671 24.8143 52.7877 25.8186L52.7876 25.8186L52.787 25.8195C52.6448 26.0026 52.5178 26.1663 52.4074 26.3039C52.2686 26.4739 52.1323 26.6714 51.9733 26.902L51.9733 26.902L51.9733 26.9021C51.6458 27.3767 51.2218 27.9914 50.4801 28.7941C48.7437 30.6832 46.4396 31.7661 44.2213 31.0171C43.6369 30.8183 43.1103 30.479 42.6877 30.029C42.2652 29.579 41.9596 29.0321 41.798 28.4363C41.7312 28.2073 41.5976 28.1406 41.4736 28.2932C41.1158 28.7416 40.3812 29.3999 39.7705 29.815C39.7038 29.8627 39.5368 29.9629 39.3937 29.8913C39.1272 29.6301 38.9006 29.3311 38.721 29.004C38.694 28.9452 38.6864 28.8793 38.6992 28.8158C38.7121 28.7524 38.7448 28.6946 38.7926 28.651C39.6704 27.8829 40.1474 27.4441 40.529 26.967C40.8518 26.5409 41.1076 26.0679 41.2875 25.5645C41.8171 24.2193 43.0335 21.71 45.4521 20.4124C46.3776 19.9211 47.3126 19.5633 48.3525 19.4441C48.7962 19.3963 49.1635 19.4488 49.2971 19.8018L49.5499 20.4983C49.5976 20.6414 49.5595 20.7512 49.3925 20.8132C47.9661 21.357 46.535 22.1966 45.5428 23.5228C44.4217 25.0302 44.1212 26.8382 44.8701 27.8782C45.4187 28.6367 46.306 28.7702 47.1552 28.4983C48.4479 28.0928 49.5451 26.8859 50.1128 25.5502C50.7282 24.0905 50.8284 22.3636 50.3752 20.8466C50.2989 20.5842 50.3657 20.3838 50.5374 20.2407C50.8314 19.9998 51.2197 19.8079 51.4122 19.7127C51.4447 19.6966 51.4715 19.6833 51.4915 19.673C51.627 19.6 51.7847 19.5796 51.9344 19.6157C52.084 19.6518 52.2151 19.7419 52.3024 19.8686C52.7969 20.6838 53.0561 21.62 53.0514 22.5735C53.0848 22.7881 53.1754 22.7929 53.2756 22.6784C53.4936 22.4469 53.7077 22.2113 53.9209 21.9767C54.5337 21.3024 55.1386 20.6368 55.8039 20.1024C56.6245 19.4488 57.6787 18.9145 58.6614 18.9384C59.9304 18.967 60.5648 19.8305 60.5219 21.3665C60.5171 21.5574 60.6555 21.5478 60.7509 21.4142C61.0449 20.9707 61.4053 20.5749 61.8194 20.2407C62.6972 19.5156 63.5988 19.1912 64.5338 19.258C64.8152 19.2775 65.0895 19.3547 65.3397 19.485C65.5899 19.6152 65.8105 19.7957 65.9878 20.0151C66.1651 20.2344 66.2952 20.488 66.3701 20.7599C66.4449 21.0319 66.4629 21.3163 66.4229 21.5955C66.3764 21.9749 66.2384 22.3373 66.0206 22.6515C65.8029 22.9656 65.512 23.2221 65.173 23.3987C64.5672 23.6993 63.866 23.6468 63.3746 23.2079C63.1832 23.0284 63.0427 22.8015 62.9673 22.5501C62.8919 22.2988 62.8843 22.032 62.9453 21.7768C62.9691 21.6671 62.826 21.5621 62.7067 21.6862C61.5762 22.8597 61.4951 24.3815 62.2297 25.0636C63.0454 25.8174 64.2619 25.3117 65.154 24.7345C66.1026 24.1132 66.9254 23.3661 67.7349 22.631C68.3177 22.1019 68.8936 21.5789 69.5046 21.1137C70.4778 20.3791 71.5797 19.7255 72.82 19.5538C73.5019 19.4518 74.1986 19.5342 74.8379 19.7923C75.7252 20.1501 76.2881 20.899 76.3597 21.5478C76.374 21.7386 76.5219 21.7625 76.6364 21.5955C76.881 21.2128 77.4987 20.2771 78.2127 19.1956L78.2129 19.1952C79.546 17.1759 81.2144 14.6486 81.4163 14.2634C81.507 14.0773 81.6119 14.0487 81.8123 14.0487H84.5076ZM47.9137 15.6992C47.9471 15.8757 48.0186 15.9091 48.0997 15.8901C48.5447 15.7689 48.931 15.4911 49.1874 15.1077C49.4259 14.7642 49.5356 14.2681 49.3019 14.0678C49.092 13.8912 48.7533 13.939 48.5004 14.1632C48.2856 14.3526 48.12 14.5914 48.0178 14.8589C47.9156 15.1265 47.8799 15.4148 47.9137 15.6992ZM28.0067 31.0075C25.0967 31.0266 22.5302 29.2282 22.2345 26.1083C22.0642 24.4859 22.5312 22.8609 23.5368 21.5764C24.405 20.4458 25.8743 19.5108 27.1146 19.2818C27.5153 19.2055 28.0592 19.2532 28.2834 19.5203C28.6364 19.9306 28.5362 20.379 28.1832 20.5603C27.2339 21.0421 26.0938 21.8722 25.5308 23.0028C25.2709 23.4832 25.1472 24.0257 25.1733 24.5714C25.1993 25.1171 25.3741 25.6452 25.6787 26.0988C26.8475 27.8638 30.1104 27.9115 33.1397 25.097C33.8934 24.4053 34.5613 23.7422 35.2434 22.9598C36.5791 21.4333 37.0228 20.8751 38.7974 18.4136C38.8165 18.385 38.826 18.3468 38.8165 18.3325C38.8022 18.2991 38.7783 18.2943 38.7258 18.2848C37.5428 18.323 36.5076 18.676 35.5058 19.4249C35.2196 19.6348 34.7998 19.6062 34.6185 19.3295C34.4181 19.0147 34.5613 18.6044 34.8952 18.3754C36.3559 17.3555 37.942 17.0951 39.5682 16.8282C39.737 16.8005 39.9063 16.7727 40.0759 16.744C40.0759 16.744 40.1999 16.744 40.3048 16.6152C40.6119 16.219 40.8877 15.8401 41.1616 15.4637C41.5473 14.9338 41.9292 14.409 42.3895 13.8483C43.1862 12.8751 44.2118 11.9783 44.9942 11.3057C45.9299 10.5042 46.5777 10.1572 47.189 9.82981C47.2945 9.77333 47.3988 9.71743 47.5034 9.65988C47.6942 9.56448 47.4796 9.44521 47.4223 9.44521C47.1298 9.39021 46.8365 9.33403 46.5424 9.27771L46.5419 9.27761C42.8322 8.56708 39.0125 7.83548 35.3484 9.19238C32.6101 10.2133 31.408 12.3886 31.9852 13.8388C32.3955 14.8692 33.7503 15.0314 35.0192 14.4112C36.0687 13.9008 37.0466 13.066 37.7384 11.9974C38.12 11.4011 38.9357 11.8304 38.4968 12.8656C37.3376 15.5847 35.1289 17.741 32.4384 17.8316C30.1438 17.9079 28.665 16.2192 28.6698 14.1393C28.6793 10.0367 33.2494 7.33669 38.0437 6.9312C42.0887 6.59746 45.9842 7.25138 49.9247 7.91286C51.6166 8.19687 53.3168 8.48227 55.0407 8.69149C59.439 9.221 63.6561 9.23532 68.0782 8.21445C68.603 8.10472 68.9655 8.43865 68.9369 8.9634C68.8892 9.72667 68.2977 10.4613 66.8427 11.2532C65.1874 12.1644 63.4557 12.441 61.6429 12.4554C58.641 12.4816 55.7787 11.6838 52.9122 10.8848C51.606 10.5208 50.299 10.1565 48.9775 9.86978C48.9784 9.9044 48.9809 9.94017 48.9835 9.97624L48.9835 9.97637C48.9947 10.1341 49.0063 10.2975 48.8821 10.3945C46.5446 12.1119 44.4313 13.8626 43.0144 16.3194C42.9667 16.3766 42.9954 16.4339 43.0765 16.4243C43.4159 16.4072 43.7455 16.3923 44.069 16.3777H44.069C44.9187 16.3392 45.7263 16.3026 46.5589 16.2335C46.7545 16.2192 46.764 16.1715 46.7497 16.0236C46.6877 15.57 46.736 15.1081 46.8904 14.6771C47.0449 14.2462 47.301 13.8588 47.637 13.5478C48.4002 12.8656 49.3543 12.7845 49.9888 13.2806C50.7044 13.8388 50.6424 14.8501 50.2512 15.6038C50.0749 15.9357 49.8337 16.2287 49.542 16.4655C49.2502 16.7024 48.9139 16.8781 48.5529 16.9825C48.5529 16.9825 48.4193 17.0111 48.4384 17.1304C48.4527 17.2443 48.7679 17.462 49.0349 17.6463C49.215 17.7707 49.3732 17.8799 49.402 17.9318C49.4736 18.0558 49.4354 18.2419 49.3066 18.385C49.2556 18.4471 49.1916 18.4972 49.119 18.5319C49.0465 18.5665 48.9672 18.5847 48.8868 18.5853C48.7435 18.5853 48.6539 18.536 48.4748 18.4375L48.4575 18.4279C48.0027 18.1849 47.598 17.8579 47.2649 17.4643C47.1504 17.326 47.0932 17.3212 46.8212 17.3403C45.5809 17.4118 43.6441 17.5979 42.337 17.7601C42.0174 17.7982 41.9697 17.8602 41.9077 17.97L41.7687 18.1992C39.7193 21.5782 37.5314 25.1855 35.1337 27.6205C32.51 30.2872 30.3251 30.9884 28.0067 31.0075ZM4.02592 20.0068C4.02592 10.7951 26.0987 3.27215 53.333 3.27215C80.5626 3.27215 102.64 10.7999 102.64 20.0068C102.64 29.2137 80.5674 36.7414 53.333 36.7414C26.0987 36.7414 4.02592 29.2137 4.02592 20.0068ZM2.22747 20.0068C2.22747 30.0867 25.1064 38.2584 53.333 38.2584C81.5548 38.2584 104.434 30.0867 104.434 20.0068C104.434 9.92212 81.5548 1.75516 53.333 1.75516C25.1064 1.75516 2.22747 9.92212 2.22747 20.0068Z" fill="#0D1117"></path></g><defs><clipPath id="clip0_43_208"><rect width="106.667" height="40" fill="white"></rect></clipPath></defs></svg>